<mxfile host="app.diagrams.net" modified="2024-05-06T19:38:35.596Z" agent="Mozilla/5.0 (Windows NT 10.0; Win64; x64; rv:125.0) Gecko/20100101 Firefox/125.0" etag="KbrbyeqFUidhjQBzjWO1" version="24.3.1" type="device">
  <diagram name="Page-1" id="0O94LLmqdUYVFEyuOrmt">
    <mxGraphModel dx="989" dy="514" grid="1" gridSize="10" guides="1" tooltips="1" connect="1" arrows="1" fold="1" page="1" pageScale="1" pageWidth="710" pageHeight="750" math="0" shadow="0">
      <root>
        <mxCell id="0" />
        <mxCell id="1" parent="0" />
        <mxCell id="ZWPOv1tZmrXOhao-9llu-170" value="&lt;i style=&quot;font-size: 12px;&quot;&gt;N&lt;/i&gt; outbox messages" style="rounded=0;whiteSpace=wrap;html=1;sketch=1;jiggle=2;curveFitting=1;strokeColor=#82b366;align=center;verticalAlign=middle;fontFamily=Roboto;fontSource=https%3A%2F%2Ffonts.googleapis.com%2Fcss%3Ffamily%3DRoboto;fontSize=12;labelBackgroundColor=none;fillColor=#d5e8d4;spacing=5;fillStyle=solid;" parent="1" vertex="1">
          <mxGeometry x="402" y="606" width="80" height="50" as="geometry" />
        </mxCell>
        <mxCell id="ZWPOv1tZmrXOhao-9llu-139" value="external services" style="rounded=0;whiteSpace=wrap;html=1;sketch=1;jiggle=2;curveFitting=1;strokeColor=#9673a6;align=center;verticalAlign=middle;fontFamily=Roboto;fontSource=https%3A%2F%2Ffonts.googleapis.com%2Fcss%3Ffamily%3DRoboto;fontSize=14;labelBackgroundColor=none;fillColor=#e1d5e7;spacingTop=4;" parent="1" vertex="1">
          <mxGeometry x="280" y="700" width="370" height="90" as="geometry" />
        </mxCell>
        <mxCell id="ZWPOv1tZmrXOhao-9llu-138" value="background processing" style="rounded=0;whiteSpace=wrap;html=1;sketch=1;jiggle=2;curveFitting=1;strokeColor=#b85450;align=left;verticalAlign=top;fontFamily=Roboto;fontSource=https%3A%2F%2Ffonts.googleapis.com%2Fcss%3Ffamily%3DRoboto;fontSize=14;labelBackgroundColor=none;fillColor=#f8cecc;spacing=6;spacingLeft=10;" parent="1" vertex="1">
          <mxGeometry x="398.5" y="195" width="308" height="370" as="geometry" />
        </mxCell>
        <mxCell id="ZWPOv1tZmrXOhao-9llu-133" value="request processing" style="rounded=0;whiteSpace=wrap;html=1;sketch=1;jiggle=2;curveFitting=1;strokeColor=#6c8ebf;align=left;verticalAlign=top;fontFamily=Roboto;fontSource=https%3A%2F%2Ffonts.googleapis.com%2Fcss%3Ffamily%3DRoboto;fontSize=14;labelBackgroundColor=none;fillColor=#dae8fc;spacing=8;spacingRight=0;spacingLeft=10;" parent="1" vertex="1">
          <mxGeometry x="2" y="195" width="387" height="370" as="geometry" />
        </mxCell>
        <mxCell id="ZWPOv1tZmrXOhao-9llu-90" value="transaction" style="rounded=1;whiteSpace=wrap;html=1;sketch=1;jiggle=2;curveFitting=1;strokeColor=#82b366;align=center;verticalAlign=bottom;fontFamily=Roboto;fontSource=https%3A%2F%2Ffonts.googleapis.com%2Fcss%3Ffamily%3DRoboto;fontSize=14;labelBackgroundColor=none;fillColor=#d5e8d4;spacing=5;" parent="1" vertex="1">
          <mxGeometry x="14" y="590" width="380" height="79" as="geometry" />
        </mxCell>
        <mxCell id="ZWPOv1tZmrXOhao-9llu-123" style="edgeStyle=orthogonalEdgeStyle;rounded=0;sketch=1;jiggle=2;curveFitting=1;orthogonalLoop=1;jettySize=auto;html=1;exitX=0.75;exitY=0;exitDx=0;exitDy=0;entryX=0.75;entryY=1;entryDx=0;entryDy=0;strokeColor=default;align=center;verticalAlign=middle;fontFamily=Roboto;fontSource=https%3A%2F%2Ffonts.googleapis.com%2Fcss%3Ffamily%3DRoboto;fontSize=12;fontColor=default;labelBackgroundColor=default;endArrow=classic;" parent="1" edge="1">
          <mxGeometry relative="1" as="geometry">
            <mxPoint x="351.25" y="315" as="sourcePoint" />
            <mxPoint x="350.25" y="293" as="targetPoint" />
          </mxGeometry>
        </mxCell>
        <mxCell id="ZWPOv1tZmrXOhao-9llu-146" style="rounded=0;sketch=1;jiggle=2;curveFitting=1;orthogonalLoop=1;jettySize=auto;html=1;entryX=1;entryY=0.5;entryDx=0;entryDy=0;strokeColor=default;align=center;verticalAlign=middle;fontFamily=Roboto;fontSource=https%3A%2F%2Ffonts.googleapis.com%2Fcss%3Ffamily%3DRoboto;fontSize=12;fontColor=default;labelBackgroundColor=default;endArrow=classic;" parent="1" source="ZWPOv1tZmrXOhao-9llu-2" target="ZWPOv1tZmrXOhao-9llu-141" edge="1">
          <mxGeometry relative="1" as="geometry" />
        </mxCell>
        <mxCell id="ZWPOv1tZmrXOhao-9llu-2" value="Invite User&lt;br&gt; Command Handler" style="rounded=0;whiteSpace=wrap;html=1;sketch=1;jiggle=2;curveFitting=1;strokeColor=default;align=center;verticalAlign=middle;fontFamily=Roboto;fontSize=12;fontColor=default;fillColor=default;fontSource=https%3A%2F%2Ffonts.googleapis.com%2Fcss%3Ffamily%3DRoboto;" parent="1" vertex="1">
          <mxGeometry x="266" y="315" width="115" height="40" as="geometry" />
        </mxCell>
        <mxCell id="ZWPOv1tZmrXOhao-9llu-130" style="rounded=0;sketch=1;jiggle=2;curveFitting=1;orthogonalLoop=1;jettySize=auto;html=1;exitX=0.5;exitY=1;exitDx=0;exitDy=0;entryX=0.25;entryY=0;entryDx=0;entryDy=0;strokeColor=default;align=center;verticalAlign=middle;fontFamily=Roboto;fontSource=https%3A%2F%2Ffonts.googleapis.com%2Fcss%3Ffamily%3DRoboto;fontSize=12;fontColor=default;labelBackgroundColor=default;endArrow=classic;" parent="1" source="ZWPOv1tZmrXOhao-9llu-5" target="ZWPOv1tZmrXOhao-9llu-6" edge="1">
          <mxGeometry relative="1" as="geometry" />
        </mxCell>
        <mxCell id="ZWPOv1tZmrXOhao-9llu-5" value="Invite User Validator" style="rounded=0;whiteSpace=wrap;html=1;sketch=1;jiggle=2;curveFitting=1;strokeColor=default;align=center;verticalAlign=middle;fontFamily=Roboto;fontSize=12;fontColor=default;fillColor=default;fontSource=https%3A%2F%2Ffonts.googleapis.com%2Fcss%3Ffamily%3DRoboto;" parent="1" vertex="1">
          <mxGeometry x="244" y="205" width="100" height="40" as="geometry" />
        </mxCell>
        <mxCell id="ZWPOv1tZmrXOhao-9llu-122" style="edgeStyle=orthogonalEdgeStyle;rounded=0;sketch=1;jiggle=2;curveFitting=1;orthogonalLoop=1;jettySize=auto;html=1;exitX=0.25;exitY=1;exitDx=0;exitDy=0;entryX=0.25;entryY=0;entryDx=0;entryDy=0;strokeColor=default;align=center;verticalAlign=middle;fontFamily=Roboto;fontSource=https%3A%2F%2Ffonts.googleapis.com%2Fcss%3Ffamily%3DRoboto;fontSize=12;fontColor=default;labelBackgroundColor=default;endArrow=classic;" parent="1" source="ZWPOv1tZmrXOhao-9llu-6" target="ZWPOv1tZmrXOhao-9llu-2" edge="1">
          <mxGeometry relative="1" as="geometry" />
        </mxCell>
        <mxCell id="ZWPOv1tZmrXOhao-9llu-129" style="rounded=0;sketch=1;jiggle=2;curveFitting=1;orthogonalLoop=1;jettySize=auto;html=1;exitX=0.75;exitY=0;exitDx=0;exitDy=0;strokeColor=default;align=center;verticalAlign=middle;fontFamily=Roboto;fontSource=https%3A%2F%2Ffonts.googleapis.com%2Fcss%3Ffamily%3DRoboto;fontSize=12;fontColor=default;labelBackgroundColor=default;endArrow=classic;" parent="1" source="ZWPOv1tZmrXOhao-9llu-6" target="ZWPOv1tZmrXOhao-9llu-126" edge="1">
          <mxGeometry relative="1" as="geometry" />
        </mxCell>
        <mxCell id="ZWPOv1tZmrXOhao-9llu-6" value="Invite User Endpoint " style="rounded=0;whiteSpace=wrap;html=1;sketch=1;jiggle=2;curveFitting=1;strokeColor=default;align=center;verticalAlign=middle;fontFamily=Roboto;fontSize=12;fontColor=default;fillColor=default;fontSource=https%3A%2F%2Ffonts.googleapis.com%2Fcss%3Ffamily%3DRoboto;" parent="1" vertex="1">
          <mxGeometry x="265" y="263" width="115" height="30" as="geometry" />
        </mxCell>
        <mxCell id="ZWPOv1tZmrXOhao-9llu-92" style="rounded=0;sketch=1;jiggle=2;curveFitting=1;orthogonalLoop=1;jettySize=auto;html=1;exitX=0.25;exitY=1;exitDx=0;exitDy=0;strokeColor=default;align=center;verticalAlign=middle;fontFamily=Roboto;fontSource=https%3A%2F%2Ffonts.googleapis.com%2Fcss%3Ffamily%3DRoboto;fontSize=12;fontColor=default;labelBackgroundColor=default;endArrow=classic;" parent="1" source="ZWPOv1tZmrXOhao-9llu-8" target="ZWPOv1tZmrXOhao-9llu-51" edge="1">
          <mxGeometry relative="1" as="geometry" />
        </mxCell>
        <mxCell id="ZWPOv1tZmrXOhao-9llu-93" style="rounded=0;sketch=1;jiggle=2;curveFitting=1;orthogonalLoop=1;jettySize=auto;html=1;strokeColor=default;align=center;verticalAlign=middle;fontFamily=Roboto;fontSource=https%3A%2F%2Ffonts.googleapis.com%2Fcss%3Ffamily%3DRoboto;fontSize=12;fontColor=default;labelBackgroundColor=default;endArrow=classic;" parent="1" target="ZWPOv1tZmrXOhao-9llu-52" edge="1">
          <mxGeometry relative="1" as="geometry">
            <mxPoint x="350" y="450" as="sourcePoint" />
          </mxGeometry>
        </mxCell>
        <mxCell id="ZWPOv1tZmrXOhao-9llu-120" style="edgeStyle=orthogonalEdgeStyle;rounded=0;sketch=1;jiggle=2;curveFitting=1;orthogonalLoop=1;jettySize=auto;html=1;exitX=0.75;exitY=0;exitDx=0;exitDy=0;entryX=0.75;entryY=1;entryDx=0;entryDy=0;strokeColor=default;align=center;verticalAlign=middle;fontFamily=Roboto;fontSource=https%3A%2F%2Ffonts.googleapis.com%2Fcss%3Ffamily%3DRoboto;fontSize=12;fontColor=default;labelBackgroundColor=default;endArrow=classic;" parent="1" edge="1">
          <mxGeometry relative="1" as="geometry">
            <mxPoint x="351.25" y="398.75" as="sourcePoint" />
            <mxPoint x="351.25" y="355" as="targetPoint" />
          </mxGeometry>
        </mxCell>
        <mxCell id="ZWPOv1tZmrXOhao-9llu-8" value="Invitation Domain Service" style="rounded=0;whiteSpace=wrap;html=1;sketch=1;jiggle=2;curveFitting=1;strokeColor=default;align=center;verticalAlign=middle;fontFamily=Roboto;fontSize=12;fontColor=default;fillColor=default;fontSource=https%3A%2F%2Ffonts.googleapis.com%2Fcss%3Ffamily%3DRoboto;" parent="1" vertex="1">
          <mxGeometry x="266" y="398.75" width="115" height="50" as="geometry" />
        </mxCell>
        <mxCell id="ZWPOv1tZmrXOhao-9llu-136" style="rounded=0;sketch=1;jiggle=2;curveFitting=1;orthogonalLoop=1;jettySize=auto;html=1;exitX=0.5;exitY=1;exitDx=0;exitDy=0;strokeColor=default;align=center;verticalAlign=middle;fontFamily=Roboto;fontSource=https%3A%2F%2Ffonts.googleapis.com%2Fcss%3Ffamily%3DRoboto;fontSize=12;fontColor=default;labelBackgroundColor=default;endArrow=classic;entryX=0.5;entryY=0;entryDx=0;entryDy=0;" parent="1" source="ZWPOv1tZmrXOhao-9llu-9" target="ZWPOv1tZmrXOhao-9llu-5" edge="1">
          <mxGeometry relative="1" as="geometry" />
        </mxCell>
        <mxCell id="ZWPOv1tZmrXOhao-9llu-9" value="&lt;div&gt;{&lt;/div&gt;&lt;div&gt;&lt;span style=&quot;white-space: pre;&quot;&gt;&#x9;&lt;/span&gt;teamId: uuid,&lt;br&gt;&lt;/div&gt;&lt;div&gt;&lt;span style=&quot;white-space: pre;&quot;&gt;&#x9;&lt;/span&gt;email: xxx@zzz&lt;br&gt;&lt;/div&gt;&lt;div&gt;}&lt;/div&gt;" style="rounded=0;whiteSpace=wrap;html=1;sketch=1;jiggle=2;curveFitting=1;strokeColor=#d79b00;align=left;verticalAlign=middle;fontFamily=Roboto;fontSource=https%3A%2F%2Ffonts.googleapis.com%2Fcss%3Ffamily%3DRoboto;fontSize=12;fillColor=#ffe6cc;spacing=10;fillStyle=solid;" parent="1" vertex="1">
          <mxGeometry x="194" y="100" width="140" height="70" as="geometry" />
        </mxCell>
        <mxCell id="ZWPOv1tZmrXOhao-9llu-25" style="rounded=0;sketch=1;jiggle=2;curveFitting=1;orthogonalLoop=1;jettySize=auto;html=1;strokeColor=default;align=center;verticalAlign=middle;fontFamily=Roboto;fontSource=https%3A%2F%2Ffonts.googleapis.com%2Fcss%3Ffamily%3DRoboto;fontSize=12;fontColor=default;labelBackgroundColor=default;endArrow=classic;entryX=0.75;entryY=0;entryDx=0;entryDy=0;" parent="1" source="ZWPOv1tZmrXOhao-9llu-17" target="ZWPOv1tZmrXOhao-9llu-20" edge="1">
          <mxGeometry relative="1" as="geometry" />
        </mxCell>
        <mxCell id="ZWPOv1tZmrXOhao-9llu-17" value="Invitation Created Integration Event" style="whiteSpace=wrap;html=1;rounded=0;sketch=1;jiggle=2;curveFitting=1;strokeColor=#d79b00;align=center;verticalAlign=middle;fontFamily=Roboto;fontSource=https%3A%2F%2Ffonts.googleapis.com%2Fcss%3Ffamily%3DRoboto;fontSize=12;labelBackgroundColor=none;fillColor=#ffe6cc;glass=0;shadow=0;spacing=10;fontColor=default;fillStyle=solid;" parent="1" vertex="1">
          <mxGeometry x="134" y="443.75" width="115" height="40" as="geometry" />
        </mxCell>
        <mxCell id="ZWPOv1tZmrXOhao-9llu-24" style="rounded=0;sketch=1;jiggle=2;curveFitting=1;orthogonalLoop=1;jettySize=auto;html=1;strokeColor=default;align=center;verticalAlign=middle;fontFamily=Roboto;fontSource=https%3A%2F%2Ffonts.googleapis.com%2Fcss%3Ffamily%3DRoboto;fontSize=12;fontColor=default;labelBackgroundColor=default;endArrow=classic;entryX=0.5;entryY=0;entryDx=0;entryDy=0;edgeStyle=orthogonalEdgeStyle;" parent="1" source="ZWPOv1tZmrXOhao-9llu-8" target="ZWPOv1tZmrXOhao-9llu-17" edge="1">
          <mxGeometry relative="1" as="geometry">
            <mxPoint x="334" y="445" as="sourcePoint" />
          </mxGeometry>
        </mxCell>
        <mxCell id="ZWPOv1tZmrXOhao-9llu-57" style="rounded=0;sketch=1;jiggle=2;curveFitting=1;orthogonalLoop=1;jettySize=auto;html=1;exitX=0.25;exitY=1;exitDx=0;exitDy=0;strokeColor=default;align=center;verticalAlign=middle;fontFamily=Roboto;fontSource=https%3A%2F%2Ffonts.googleapis.com%2Fcss%3Ffamily%3DRoboto;fontSize=12;fontColor=default;labelBackgroundColor=default;endArrow=classic;entryX=0.5;entryY=0;entryDx=0;entryDy=0;" parent="1" source="ZWPOv1tZmrXOhao-9llu-20" target="ZWPOv1tZmrXOhao-9llu-38" edge="1">
          <mxGeometry relative="1" as="geometry" />
        </mxCell>
        <mxCell id="ZWPOv1tZmrXOhao-9llu-20" value="Integration Event Manager" style="rounded=0;whiteSpace=wrap;html=1;sketch=1;jiggle=2;curveFitting=1;strokeColor=default;align=center;verticalAlign=middle;fontFamily=Roboto;fontSize=12;fontColor=default;fillColor=default;fontSource=https%3A%2F%2Ffonts.googleapis.com%2Fcss%3Ffamily%3DRoboto;" parent="1" vertex="1">
          <mxGeometry x="56.5" y="510" width="130" height="40" as="geometry" />
        </mxCell>
        <mxCell id="ZWPOv1tZmrXOhao-9llu-21" value="invitation created message" style="rounded=0;whiteSpace=wrap;html=1;sketch=1;jiggle=2;curveFitting=1;strokeColor=#82b366;align=center;verticalAlign=middle;fontFamily=Roboto;fontSource=https%3A%2F%2Ffonts.googleapis.com%2Fcss%3Ffamily%3DRoboto;fontSize=12;labelBackgroundColor=none;fillColor=#d5e8d4;fillStyle=solid;" parent="1" vertex="1">
          <mxGeometry x="121.5" y="600" width="100" height="40" as="geometry" />
        </mxCell>
        <mxCell id="ZWPOv1tZmrXOhao-9llu-27" value="user" style="rounded=0;whiteSpace=wrap;html=1;sketch=1;jiggle=2;curveFitting=1;strokeColor=#82b366;align=center;verticalAlign=middle;fontFamily=Roboto;fontSource=https%3A%2F%2Ffonts.googleapis.com%2Fcss%3Ffamily%3DRoboto;fontSize=12;labelBackgroundColor=none;fillColor=#d5e8d4;fillStyle=solid;" parent="1" vertex="1">
          <mxGeometry x="234" y="600" width="70" height="40" as="geometry" />
        </mxCell>
        <mxCell id="ZWPOv1tZmrXOhao-9llu-28" value="invitation" style="rounded=0;whiteSpace=wrap;html=1;sketch=1;jiggle=2;curveFitting=1;strokeColor=#82b366;align=center;verticalAlign=middle;fontFamily=Roboto;fontSource=https%3A%2F%2Ffonts.googleapis.com%2Fcss%3Ffamily%3DRoboto;fontSize=12;labelBackgroundColor=none;fillColor=#d5e8d4;fillStyle=solid;" parent="1" vertex="1">
          <mxGeometry x="314" y="600" width="70" height="40" as="geometry" />
        </mxCell>
        <mxCell id="ZWPOv1tZmrXOhao-9llu-37" style="rounded=0;sketch=1;jiggle=2;curveFitting=1;orthogonalLoop=1;jettySize=auto;html=1;strokeColor=default;align=center;verticalAlign=middle;fontFamily=Roboto;fontSource=https%3A%2F%2Ffonts.googleapis.com%2Fcss%3Ffamily%3DRoboto;fontSize=12;fontColor=default;labelBackgroundColor=default;endArrow=classic;" parent="1" source="ZWPOv1tZmrXOhao-9llu-31" target="ZWPOv1tZmrXOhao-9llu-33" edge="1">
          <mxGeometry relative="1" as="geometry" />
        </mxCell>
        <mxCell id="ZWPOv1tZmrXOhao-9llu-31" value="User Created Domain Event Handler" style="whiteSpace=wrap;html=1;rounded=0;sketch=1;jiggle=2;curveFitting=1;strokeColor=default;align=center;verticalAlign=middle;fontFamily=Roboto;fontSource=https%3A%2F%2Ffonts.googleapis.com%2Fcss%3Ffamily%3DRoboto;fontSize=12;fontColor=default;labelBackgroundColor=default;fillColor=default;glass=0;shadow=0;spacing=4;" parent="1" vertex="1">
          <mxGeometry x="9" y="375" width="125" height="50" as="geometry" />
        </mxCell>
        <mxCell id="ZWPOv1tZmrXOhao-9llu-33" value="User Created Integration Event" style="whiteSpace=wrap;html=1;rounded=0;sketch=1;jiggle=2;curveFitting=1;strokeColor=#d79b00;align=center;verticalAlign=middle;fontFamily=Roboto;fontSource=https%3A%2F%2Ffonts.googleapis.com%2Fcss%3Ffamily%3DRoboto;fontSize=12;labelBackgroundColor=none;fillColor=#ffe6cc;glass=0;shadow=0;spacing=10;fontColor=default;fillStyle=solid;" parent="1" vertex="1">
          <mxGeometry x="14" y="443.75" width="115" height="40" as="geometry" />
        </mxCell>
        <mxCell id="ZWPOv1tZmrXOhao-9llu-38" value="user created message" style="rounded=0;whiteSpace=wrap;html=1;sketch=1;jiggle=2;curveFitting=1;strokeColor=#82b366;align=center;verticalAlign=middle;fontFamily=Roboto;fontSource=https%3A%2F%2Ffonts.googleapis.com%2Fcss%3Ffamily%3DRoboto;fontSize=12;labelBackgroundColor=none;fillColor=#d5e8d4;fillStyle=solid;" parent="1" vertex="1">
          <mxGeometry x="24" y="600" width="90" height="40" as="geometry" />
        </mxCell>
        <mxCell id="ZWPOv1tZmrXOhao-9llu-152" style="edgeStyle=orthogonalEdgeStyle;rounded=0;sketch=1;jiggle=2;curveFitting=1;orthogonalLoop=1;jettySize=auto;html=1;exitX=0.5;exitY=1;exitDx=0;exitDy=0;entryX=0.5;entryY=0;entryDx=0;entryDy=0;strokeColor=default;align=center;verticalAlign=middle;fontFamily=Roboto;fontSource=https%3A%2F%2Ffonts.googleapis.com%2Fcss%3Ffamily%3DRoboto;fontSize=12;fontColor=default;labelBackgroundColor=default;endArrow=classic;" parent="1" source="ZWPOv1tZmrXOhao-9llu-44" target="ZWPOv1tZmrXOhao-9llu-94" edge="1">
          <mxGeometry relative="1" as="geometry" />
        </mxCell>
        <mxCell id="ZWPOv1tZmrXOhao-9llu-44" value="&lt;div&gt;User Created Event&lt;/div&gt;&lt;div&gt;Handler&lt;br&gt;&lt;/div&gt;" style="whiteSpace=wrap;html=1;rounded=0;sketch=1;jiggle=2;curveFitting=1;strokeColor=default;align=center;verticalAlign=middle;fontFamily=Roboto;fontSource=https%3A%2F%2Ffonts.googleapis.com%2Fcss%3Ffamily%3DRoboto;fontSize=12;fontColor=default;labelBackgroundColor=default;fillColor=default;glass=0;shadow=0;" parent="1" vertex="1">
          <mxGeometry x="591.5" y="376" width="90" height="50" as="geometry" />
        </mxCell>
        <mxCell id="ZWPOv1tZmrXOhao-9llu-153" style="edgeStyle=orthogonalEdgeStyle;rounded=0;sketch=1;jiggle=2;curveFitting=1;orthogonalLoop=1;jettySize=auto;html=1;exitX=0.5;exitY=1;exitDx=0;exitDy=0;entryX=0.5;entryY=0;entryDx=0;entryDy=0;strokeColor=default;align=center;verticalAlign=middle;fontFamily=Roboto;fontSource=https%3A%2F%2Ffonts.googleapis.com%2Fcss%3Ffamily%3DRoboto;fontSize=12;fontColor=default;labelBackgroundColor=default;endArrow=classic;" parent="1" source="ZWPOv1tZmrXOhao-9llu-45" target="ZWPOv1tZmrXOhao-9llu-98" edge="1">
          <mxGeometry relative="1" as="geometry" />
        </mxCell>
        <mxCell id="ZWPOv1tZmrXOhao-9llu-45" value="&lt;div&gt;Invitation Created Event&lt;br&gt;&lt;/div&gt;&lt;div&gt;Handler&lt;br&gt;&lt;/div&gt;" style="whiteSpace=wrap;html=1;rounded=0;sketch=1;jiggle=2;curveFitting=1;strokeColor=default;align=center;verticalAlign=middle;fontFamily=Roboto;fontSource=https%3A%2F%2Ffonts.googleapis.com%2Fcss%3Ffamily%3DRoboto;fontSize=12;fontColor=default;labelBackgroundColor=default;fillColor=default;glass=0;shadow=0;" parent="1" vertex="1">
          <mxGeometry x="489" y="375" width="90" height="50" as="geometry" />
        </mxCell>
        <mxCell id="ZWPOv1tZmrXOhao-9llu-89" value="" style="rounded=0;sketch=1;jiggle=2;curveFitting=1;orthogonalLoop=1;jettySize=auto;html=1;strokeColor=default;align=center;verticalAlign=middle;fontFamily=Roboto;fontSource=https%3A%2F%2Ffonts.googleapis.com%2Fcss%3Ffamily%3DRoboto;fontSize=12;fontColor=default;labelBackgroundColor=default;endArrow=classic;exitX=0.5;exitY=1;exitDx=0;exitDy=0;" parent="1" source="ZWPOv1tZmrXOhao-9llu-46" target="ZWPOv1tZmrXOhao-9llu-88" edge="1">
          <mxGeometry relative="1" as="geometry" />
        </mxCell>
        <mxCell id="ZWPOv1tZmrXOhao-9llu-46" value="Email Sender" style="rounded=0;whiteSpace=wrap;html=1;sketch=1;jiggle=2;curveFitting=1;strokeColor=default;align=center;verticalAlign=middle;fontFamily=Roboto;fontSize=12;fontColor=default;fillColor=default;fontSource=https%3A%2F%2Ffonts.googleapis.com%2Fcss%3Ffamily%3DRoboto;" parent="1" vertex="1">
          <mxGeometry x="538" y="518" width="90" height="30" as="geometry" />
        </mxCell>
        <mxCell id="ZWPOv1tZmrXOhao-9llu-55" style="rounded=0;sketch=1;jiggle=2;curveFitting=1;orthogonalLoop=1;jettySize=auto;html=1;strokeColor=default;align=center;verticalAlign=middle;fontFamily=Roboto;fontSource=https%3A%2F%2Ffonts.googleapis.com%2Fcss%3Ffamily%3DRoboto;fontSize=12;fontColor=default;labelBackgroundColor=default;endArrow=classic;" parent="1" source="ZWPOv1tZmrXOhao-9llu-51" target="ZWPOv1tZmrXOhao-9llu-27" edge="1">
          <mxGeometry relative="1" as="geometry" />
        </mxCell>
        <mxCell id="ZWPOv1tZmrXOhao-9llu-51" value="User Repository" style="rounded=0;whiteSpace=wrap;html=1;sketch=1;jiggle=2;curveFitting=1;strokeColor=default;align=center;verticalAlign=middle;fontFamily=Roboto;fontSize=12;fontColor=default;fillColor=default;fontSource=https%3A%2F%2Ffonts.googleapis.com%2Fcss%3Ffamily%3DRoboto;" parent="1" vertex="1">
          <mxGeometry x="234" y="515" width="70" height="40" as="geometry" />
        </mxCell>
        <mxCell id="ZWPOv1tZmrXOhao-9llu-56" style="rounded=0;sketch=1;jiggle=2;curveFitting=1;orthogonalLoop=1;jettySize=auto;html=1;strokeColor=default;align=center;verticalAlign=middle;fontFamily=Roboto;fontSource=https%3A%2F%2Ffonts.googleapis.com%2Fcss%3Ffamily%3DRoboto;fontSize=12;fontColor=default;labelBackgroundColor=default;endArrow=classic;" parent="1" source="ZWPOv1tZmrXOhao-9llu-52" target="ZWPOv1tZmrXOhao-9llu-28" edge="1">
          <mxGeometry relative="1" as="geometry" />
        </mxCell>
        <mxCell id="ZWPOv1tZmrXOhao-9llu-52" value="Invitation Repository" style="rounded=0;whiteSpace=wrap;html=1;sketch=1;jiggle=2;curveFitting=1;strokeColor=default;align=center;verticalAlign=middle;fontFamily=Roboto;fontSize=12;fontColor=default;fillColor=default;fontSource=https%3A%2F%2Ffonts.googleapis.com%2Fcss%3Ffamily%3DRoboto;" parent="1" vertex="1">
          <mxGeometry x="314" y="515" width="70" height="40" as="geometry" />
        </mxCell>
        <mxCell id="ZWPOv1tZmrXOhao-9llu-171" style="rounded=0;sketch=1;jiggle=2;curveFitting=1;orthogonalLoop=1;jettySize=auto;html=1;entryX=0.5;entryY=1;entryDx=0;entryDy=0;strokeColor=default;align=center;verticalAlign=middle;fontFamily=Roboto;fontSource=https%3A%2F%2Ffonts.googleapis.com%2Fcss%3Ffamily%3DRoboto;fontSize=12;fontColor=default;labelBackgroundColor=default;endArrow=classic;exitX=0.855;exitY=0;exitDx=0;exitDy=4.35;exitPerimeter=0;" parent="1" source="ZWPOv1tZmrXOhao-9llu-60" target="ZWPOv1tZmrXOhao-9llu-170" edge="1">
          <mxGeometry relative="1" as="geometry" />
        </mxCell>
        <mxCell id="ZWPOv1tZmrXOhao-9llu-60" value="RDBMS" style="shape=cylinder3;whiteSpace=wrap;html=1;boundedLbl=1;backgroundOutline=1;size=15;rounded=0;sketch=1;jiggle=2;curveFitting=1;strokeColor=default;align=center;verticalAlign=middle;fontFamily=Roboto;fontSource=https%3A%2F%2Ffonts.googleapis.com%2Fcss%3Ffamily%3DRoboto;fontSize=12;fontColor=default;labelBackgroundColor=default;fillColor=default;perimeterSpacing=0;" parent="1" vertex="1">
          <mxGeometry x="310" y="712.5" width="90" height="67.5" as="geometry" />
        </mxCell>
        <mxCell id="ZWPOv1tZmrXOhao-9llu-40" style="rounded=0;sketch=1;jiggle=2;curveFitting=1;orthogonalLoop=1;jettySize=auto;html=1;exitX=0.5;exitY=1;exitDx=0;exitDy=0;strokeColor=default;align=center;verticalAlign=middle;fontFamily=Roboto;fontSource=https%3A%2F%2Ffonts.googleapis.com%2Fcss%3Ffamily%3DRoboto;fontSize=12;fontColor=default;labelBackgroundColor=default;endArrow=classic;entryX=0.25;entryY=0;entryDx=0;entryDy=0;" parent="1" source="ZWPOv1tZmrXOhao-9llu-33" target="ZWPOv1tZmrXOhao-9llu-20" edge="1">
          <mxGeometry relative="1" as="geometry" />
        </mxCell>
        <mxCell id="ZWPOv1tZmrXOhao-9llu-156" style="edgeStyle=orthogonalEdgeStyle;rounded=0;sketch=1;jiggle=2;curveFitting=1;orthogonalLoop=1;jettySize=auto;html=1;exitX=0.25;exitY=0;exitDx=0;exitDy=0;strokeColor=default;align=center;verticalAlign=middle;fontFamily=Roboto;fontSource=https%3A%2F%2Ffonts.googleapis.com%2Fcss%3Ffamily%3DRoboto;fontSize=12;fontColor=default;labelBackgroundColor=default;endArrow=classic;" parent="1" source="ZWPOv1tZmrXOhao-9llu-61" target="ZWPOv1tZmrXOhao-9llu-78" edge="1">
          <mxGeometry relative="1" as="geometry">
            <Array as="points">
              <mxPoint x="425" y="275" />
              <mxPoint x="644" y="275" />
            </Array>
          </mxGeometry>
        </mxCell>
        <mxCell id="ZWPOv1tZmrXOhao-9llu-158" style="edgeStyle=orthogonalEdgeStyle;rounded=0;sketch=1;jiggle=2;curveFitting=1;orthogonalLoop=1;jettySize=auto;html=1;entryX=0.5;entryY=0;entryDx=0;entryDy=0;strokeColor=default;align=center;verticalAlign=middle;fontFamily=Roboto;fontSource=https%3A%2F%2Ffonts.googleapis.com%2Fcss%3Ffamily%3DRoboto;fontSize=12;fontColor=default;labelBackgroundColor=default;endArrow=classic;" parent="1" source="ZWPOv1tZmrXOhao-9llu-61" target="ZWPOv1tZmrXOhao-9llu-76" edge="1">
          <mxGeometry relative="1" as="geometry">
            <Array as="points">
              <mxPoint x="454" y="295" />
              <mxPoint x="525" y="295" />
            </Array>
          </mxGeometry>
        </mxCell>
        <mxCell id="ZWPOv1tZmrXOhao-9llu-61" value="Outbox Processor" style="rounded=0;whiteSpace=wrap;html=1;sketch=1;jiggle=2;curveFitting=1;strokeColor=default;align=center;verticalAlign=middle;fontFamily=Roboto;fontSource=https%3A%2F%2Ffonts.googleapis.com%2Fcss%3Ffamily%3DRoboto;fontSize=12;fontColor=default;labelBackgroundColor=default;fillColor=default;spacing=4;" parent="1" vertex="1">
          <mxGeometry x="407" y="509" width="70" height="40" as="geometry" />
        </mxCell>
        <mxCell id="ZWPOv1tZmrXOhao-9llu-155" style="rounded=0;sketch=1;jiggle=2;curveFitting=1;orthogonalLoop=1;jettySize=auto;html=1;exitX=0.5;exitY=1;exitDx=0;exitDy=0;entryX=0.5;entryY=0;entryDx=0;entryDy=0;strokeColor=default;align=center;verticalAlign=middle;fontFamily=Roboto;fontSource=https%3A%2F%2Ffonts.googleapis.com%2Fcss%3Ffamily%3DRoboto;fontSize=12;fontColor=default;labelBackgroundColor=default;endArrow=classic;" parent="1" source="ZWPOv1tZmrXOhao-9llu-76" target="ZWPOv1tZmrXOhao-9llu-45" edge="1">
          <mxGeometry relative="1" as="geometry" />
        </mxCell>
        <mxCell id="ZWPOv1tZmrXOhao-9llu-76" value="Invitation Created Integration Event" style="whiteSpace=wrap;html=1;rounded=0;sketch=1;jiggle=2;curveFitting=1;strokeColor=#d79b00;align=center;verticalAlign=middle;fontFamily=Roboto;fontSource=https%3A%2F%2Ffonts.googleapis.com%2Fcss%3Ffamily%3DRoboto;fontSize=12;labelBackgroundColor=none;fillColor=#ffe6cc;glass=0;shadow=0;spacing=10;fontColor=default;fillStyle=solid;" parent="1" vertex="1">
          <mxGeometry x="467.5" y="315" width="115" height="40" as="geometry" />
        </mxCell>
        <mxCell id="ZWPOv1tZmrXOhao-9llu-154" style="rounded=0;sketch=1;jiggle=2;curveFitting=1;orthogonalLoop=1;jettySize=auto;html=1;exitX=0.5;exitY=1;exitDx=0;exitDy=0;entryX=0.5;entryY=0;entryDx=0;entryDy=0;strokeColor=default;align=center;verticalAlign=middle;fontFamily=Roboto;fontSource=https%3A%2F%2Ffonts.googleapis.com%2Fcss%3Ffamily%3DRoboto;fontSize=12;fontColor=default;labelBackgroundColor=default;endArrow=classic;" parent="1" source="ZWPOv1tZmrXOhao-9llu-78" target="ZWPOv1tZmrXOhao-9llu-44" edge="1">
          <mxGeometry relative="1" as="geometry" />
        </mxCell>
        <mxCell id="ZWPOv1tZmrXOhao-9llu-78" value="User Created Integration Event" style="whiteSpace=wrap;html=1;rounded=0;sketch=1;jiggle=2;curveFitting=1;strokeColor=#d79b00;align=center;verticalAlign=middle;fontFamily=Roboto;fontSource=https%3A%2F%2Ffonts.googleapis.com%2Fcss%3Ffamily%3DRoboto;fontSize=12;labelBackgroundColor=none;fillColor=#ffe6cc;glass=0;shadow=0;spacing=10;fontColor=default;fillStyle=solid;" parent="1" vertex="1">
          <mxGeometry x="587.5" y="315" width="110" height="40" as="geometry" />
        </mxCell>
        <mxCell id="ZWPOv1tZmrXOhao-9llu-88" value="Email Service" style="rounded=0;whiteSpace=wrap;html=1;sketch=1;jiggle=2;curveFitting=1;strokeColor=default;align=center;verticalAlign=middle;fontFamily=Roboto;fontSource=https%3A%2F%2Ffonts.googleapis.com%2Fcss%3Ffamily%3DRoboto;fontSize=12;fontColor=default;labelBackgroundColor=default;fillColor=default;" parent="1" vertex="1">
          <mxGeometry x="540.5" y="730" width="85" height="40" as="geometry" />
        </mxCell>
        <mxCell id="ZWPOv1tZmrXOhao-9llu-91" style="rounded=0;sketch=1;jiggle=2;curveFitting=1;orthogonalLoop=1;jettySize=auto;html=1;strokeColor=default;align=center;verticalAlign=middle;fontFamily=Roboto;fontSource=https%3A%2F%2Ffonts.googleapis.com%2Fcss%3Ffamily%3DRoboto;fontSize=12;fontColor=default;labelBackgroundColor=default;endArrow=classic;entryX=0.145;entryY=0;entryDx=0;entryDy=4.35;entryPerimeter=0;" parent="1" source="ZWPOv1tZmrXOhao-9llu-90" target="ZWPOv1tZmrXOhao-9llu-60" edge="1">
          <mxGeometry relative="1" as="geometry">
            <mxPoint x="314" y="694" as="targetPoint" />
          </mxGeometry>
        </mxCell>
        <mxCell id="ZWPOv1tZmrXOhao-9llu-101" style="rounded=0;sketch=1;jiggle=2;curveFitting=1;orthogonalLoop=1;jettySize=auto;html=1;entryX=0.75;entryY=0;entryDx=0;entryDy=0;strokeColor=default;align=center;verticalAlign=middle;fontFamily=Roboto;fontSource=https%3A%2F%2Ffonts.googleapis.com%2Fcss%3Ffamily%3DRoboto;fontSize=12;fontColor=default;labelBackgroundColor=default;endArrow=classic;exitX=0.5;exitY=1;exitDx=0;exitDy=0;" parent="1" source="ZWPOv1tZmrXOhao-9llu-94" target="ZWPOv1tZmrXOhao-9llu-46" edge="1">
          <mxGeometry relative="1" as="geometry" />
        </mxCell>
        <mxCell id="ZWPOv1tZmrXOhao-9llu-94" value="Activation Email" style="whiteSpace=wrap;html=1;rounded=0;sketch=1;jiggle=2;curveFitting=1;strokeColor=#d79b00;align=center;verticalAlign=middle;fontFamily=Roboto;fontSource=https%3A%2F%2Ffonts.googleapis.com%2Fcss%3Ffamily%3DRoboto;fontSize=12;labelBackgroundColor=none;fillColor=#ffe6cc;glass=0;shadow=0;spacing=10;fontColor=default;fillStyle=solid;" parent="1" vertex="1">
          <mxGeometry x="586.5" y="448.75" width="100" height="40" as="geometry" />
        </mxCell>
        <mxCell id="ZWPOv1tZmrXOhao-9llu-100" style="rounded=0;sketch=1;jiggle=2;curveFitting=1;orthogonalLoop=1;jettySize=auto;html=1;entryX=0.25;entryY=0;entryDx=0;entryDy=0;strokeColor=default;align=center;verticalAlign=middle;fontFamily=Roboto;fontSource=https%3A%2F%2Ffonts.googleapis.com%2Fcss%3Ffamily%3DRoboto;fontSize=12;fontColor=default;labelBackgroundColor=default;endArrow=classic;exitX=0.5;exitY=1;exitDx=0;exitDy=0;" parent="1" source="ZWPOv1tZmrXOhao-9llu-98" target="ZWPOv1tZmrXOhao-9llu-46" edge="1">
          <mxGeometry relative="1" as="geometry" />
        </mxCell>
        <mxCell id="ZWPOv1tZmrXOhao-9llu-98" value="Invitation Email" style="whiteSpace=wrap;html=1;rounded=0;sketch=1;jiggle=2;curveFitting=1;strokeColor=#d79b00;align=center;verticalAlign=middle;fontFamily=Roboto;fontSource=https%3A%2F%2Ffonts.googleapis.com%2Fcss%3Ffamily%3DRoboto;fontSize=12;labelBackgroundColor=none;fillColor=#ffe6cc;glass=0;shadow=0;spacing=10;fontColor=default;fillStyle=solid;" parent="1" vertex="1">
          <mxGeometry x="486.5" y="448.75" width="95" height="40" as="geometry" />
        </mxCell>
        <mxCell id="ZWPOv1tZmrXOhao-9llu-165" style="rounded=0;sketch=1;jiggle=2;curveFitting=1;orthogonalLoop=1;jettySize=auto;html=1;strokeColor=default;align=center;verticalAlign=middle;fontFamily=Roboto;fontSource=https%3A%2F%2Ffonts.googleapis.com%2Fcss%3Ffamily%3DRoboto;fontSize=12;fontColor=default;labelBackgroundColor=default;endArrow=classic;" parent="1" source="ZWPOv1tZmrXOhao-9llu-126" target="ZWPOv1tZmrXOhao-9llu-160" edge="1">
          <mxGeometry relative="1" as="geometry" />
        </mxCell>
        <mxCell id="ZWPOv1tZmrXOhao-9llu-126" value="&lt;div&gt;200 Created&lt;br&gt;&lt;/div&gt;" style="rounded=0;whiteSpace=wrap;html=1;sketch=1;jiggle=2;curveFitting=1;strokeColor=#d79b00;align=center;verticalAlign=middle;fontFamily=Roboto;fontSource=https%3A%2F%2Ffonts.googleapis.com%2Fcss%3Ffamily%3DRoboto;fontSize=12;fillColor=#ffe6cc;spacing=10;fillStyle=solid;fontColor=default;" parent="1" vertex="1">
          <mxGeometry x="369" y="115" width="91" height="40" as="geometry" />
        </mxCell>
        <mxCell id="ZWPOv1tZmrXOhao-9llu-119" style="edgeStyle=orthogonalEdgeStyle;rounded=0;sketch=1;jiggle=2;curveFitting=1;orthogonalLoop=1;jettySize=auto;html=1;exitX=0.25;exitY=1;exitDx=0;exitDy=0;entryX=0.25;entryY=0;entryDx=0;entryDy=0;strokeColor=default;align=center;verticalAlign=middle;fontFamily=Roboto;fontSource=https%3A%2F%2Ffonts.googleapis.com%2Fcss%3Ffamily%3DRoboto;fontSize=12;fontColor=default;labelBackgroundColor=default;endArrow=classic;" parent="1" source="ZWPOv1tZmrXOhao-9llu-2" target="ZWPOv1tZmrXOhao-9llu-8" edge="1">
          <mxGeometry relative="1" as="geometry" />
        </mxCell>
        <mxCell id="ZWPOv1tZmrXOhao-9llu-59" style="rounded=0;sketch=1;jiggle=2;curveFitting=1;orthogonalLoop=1;jettySize=auto;html=1;exitX=0.75;exitY=1;exitDx=0;exitDy=0;strokeColor=default;align=center;verticalAlign=middle;fontFamily=Roboto;fontSource=https%3A%2F%2Ffonts.googleapis.com%2Fcss%3Ffamily%3DRoboto;fontSize=12;fontColor=default;labelBackgroundColor=default;endArrow=classic;entryX=0.5;entryY=0;entryDx=0;entryDy=0;" parent="1" source="ZWPOv1tZmrXOhao-9llu-20" target="ZWPOv1tZmrXOhao-9llu-21" edge="1">
          <mxGeometry relative="1" as="geometry" />
        </mxCell>
        <mxCell id="ZWPOv1tZmrXOhao-9llu-143" style="rounded=0;sketch=1;jiggle=2;curveFitting=1;orthogonalLoop=1;jettySize=auto;html=1;strokeColor=default;align=center;verticalAlign=middle;fontFamily=Roboto;fontSource=https%3A%2F%2Ffonts.googleapis.com%2Fcss%3Ffamily%3DRoboto;fontSize=12;fontColor=default;labelBackgroundColor=default;endArrow=classic;" parent="1" source="ZWPOv1tZmrXOhao-9llu-141" target="ZWPOv1tZmrXOhao-9llu-142" edge="1">
          <mxGeometry relative="1" as="geometry" />
        </mxCell>
        <mxCell id="ZWPOv1tZmrXOhao-9llu-141" value="Unit of Work" style="rounded=0;whiteSpace=wrap;html=1;sketch=1;jiggle=2;curveFitting=1;strokeColor=default;align=center;verticalAlign=middle;fontFamily=Roboto;fontSize=12;fontColor=default;fillColor=default;fontSource=https%3A%2F%2Ffonts.googleapis.com%2Fcss%3Ffamily%3DRoboto;" parent="1" vertex="1">
          <mxGeometry x="144" y="320" width="100" height="30" as="geometry" />
        </mxCell>
        <mxCell id="ZWPOv1tZmrXOhao-9llu-144" style="rounded=0;sketch=1;jiggle=2;curveFitting=1;orthogonalLoop=1;jettySize=auto;html=1;exitX=0.5;exitY=1;exitDx=0;exitDy=0;entryX=0.5;entryY=0;entryDx=0;entryDy=0;strokeColor=default;align=center;verticalAlign=middle;fontFamily=Roboto;fontSource=https%3A%2F%2Ffonts.googleapis.com%2Fcss%3Ffamily%3DRoboto;fontSize=12;fontColor=default;labelBackgroundColor=default;endArrow=classic;" parent="1" source="ZWPOv1tZmrXOhao-9llu-142" target="ZWPOv1tZmrXOhao-9llu-31" edge="1">
          <mxGeometry relative="1" as="geometry" />
        </mxCell>
        <mxCell id="ZWPOv1tZmrXOhao-9llu-142" value="User Created Domain Event" style="whiteSpace=wrap;html=1;rounded=0;sketch=1;jiggle=2;curveFitting=1;strokeColor=#d79b00;align=center;verticalAlign=middle;fontFamily=Roboto;fontSource=https%3A%2F%2Ffonts.googleapis.com%2Fcss%3Ffamily%3DRoboto;fontSize=12;labelBackgroundColor=none;fillColor=#ffe6cc;glass=0;shadow=0;spacing=10;fontColor=default;fillStyle=solid;" parent="1" vertex="1">
          <mxGeometry x="24" y="313.75" width="95" height="42.5" as="geometry" />
        </mxCell>
        <mxCell id="ZWPOv1tZmrXOhao-9llu-114" style="rounded=0;sketch=1;jiggle=2;curveFitting=1;orthogonalLoop=1;jettySize=auto;html=1;strokeColor=default;align=center;verticalAlign=middle;fontFamily=Roboto;fontSource=https%3A%2F%2Ffonts.googleapis.com%2Fcss%3Ffamily%3DRoboto;fontSize=12;fontColor=default;labelBackgroundColor=default;endArrow=classic;entryX=0.5;entryY=1;entryDx=0;entryDy=0;exitX=0.5;exitY=0;exitDx=0;exitDy=0;" parent="1" source="ZWPOv1tZmrXOhao-9llu-170" target="ZWPOv1tZmrXOhao-9llu-61" edge="1">
          <mxGeometry relative="1" as="geometry">
            <mxPoint x="476" y="575" as="sourcePoint" />
            <mxPoint x="444" y="545" as="targetPoint" />
          </mxGeometry>
        </mxCell>
        <mxCell id="ZWPOv1tZmrXOhao-9llu-161" style="rounded=0;sketch=1;jiggle=2;curveFitting=1;orthogonalLoop=1;jettySize=auto;html=1;strokeColor=default;align=center;verticalAlign=middle;fontFamily=Roboto;fontSource=https%3A%2F%2Ffonts.googleapis.com%2Fcss%3Ffamily%3DRoboto;fontSize=12;fontColor=default;labelBackgroundColor=default;endArrow=classic;" parent="1" source="ZWPOv1tZmrXOhao-9llu-160" target="ZWPOv1tZmrXOhao-9llu-9" edge="1">
          <mxGeometry relative="1" as="geometry" />
        </mxCell>
        <mxCell id="ZWPOv1tZmrXOhao-9llu-160" value="" style="shape=actor;whiteSpace=wrap;html=1;rounded=0;sketch=1;jiggle=2;curveFitting=1;strokeColor=default;align=center;verticalAlign=middle;fontFamily=Roboto;fontSource=https%3A%2F%2Ffonts.googleapis.com%2Fcss%3Ffamily%3DRoboto;fontSize=12;fontColor=default;labelBackgroundColor=default;fillColor=default;perimeterSpacing=5;" parent="1" vertex="1">
          <mxGeometry x="326" y="5" width="40" height="60" as="geometry" />
        </mxCell>
      </root>
    </mxGraphModel>
  </diagram>
</mxfile>
